{
  "accessors": [
    {
      "bufferView": 1,
      "componentType": 5126,
      "count": 2930,
      "max": [
        107.46096038818359,
        107.50448608398438,
        135.74501037597656
      ],
      "min": [
        -107.53903961181641,
        -107.49551391601562,
        -0.25500026345252991
      ],
      "type": "VEC3"
    },
    {
      "bufferView": 1,
      "byteOffset": 35160,
      "componentType": 5126,
      "count": 2930,
      "max": [
        0.99995720386505127,
        0.99934607744216919,
        0.99556648731231689
      ],
      "min": [
        -0.99953895807266235,
        -0.9856993556022644,
        -1
      ],
      "type": "VEC3"
    },
    {
      "bufferView": 0,
      "componentType": 5125,
      "count": 2970,
      "max": [
        2929
      ],
      "min": [
        0
      ],
      "type": "SCALAR"
    }
  ],
  "asset": {
    "extras": {
      "author": "dvnc.tech (https://sketchfab.com/dvnc.tech)",
      "license": "CC-BY-4.0 (http://creativecommons.org/licenses/by/4.0/)",
      "source": "https://sketchfab.com/models/be7f0d81bb3f43fa9e8acb9b65ad5985",
      "title": "Low Poly Khafre"
    },
    "generator": "Sketchfab-3.31.2",
    "version": "2.0"
  },
  "bufferViews": [
    {
      "buffer": 0,
      "byteLength": 11880,
      "byteOffset": 0,
      "name": "floatBufferViews",
      "target": 34963
    },
    {
      "buffer": 0,
      "byteLength": 70320,
      "byteOffset": 11880,
      "byteStride": 12,
      "name": "floatBufferViews",
      "target": 34962
    }
  ],
  "buffers": [
    {
      "byteLength": 82200,
      "uri": "scene.bin"
    }
  ],
  "materials": [
    {
      "doubleSided": true,
      "emissiveFactor": [
        0,
        0,
        0
      ],
      "name": "Material",
      "pbrMetallicRoughness": {
        "baseColorFactor": [
          0.80000000000000004,
          0.60605600000000004,
          0.42536099999999999,
          1
        ],
        "metallicFactor": 0,
        "roughnessFactor": 0.83999746040000001
      }
    }
  ],
  "meshes": [
    {
      "name": "env_pyr_khafre_Material_0",
      "primitives": [
        {
          "attributes": {
            "NORMAL": 1,
            "POSITION": 0
          },
          "indices": 2,
          "material": 0,
          "mode": 4
        }
      ]
    }
  ],
  "nodes": [
    {
      "children": [
        1
      ],
      "name": "RootNode (gltf orientation matrix)",
      "rotation": [
        -0.70710678118654746,
        -0,
        -0,
        0.70710678118654757
      ]
    },
    {
      "children": [
        2
      ],
      "name": "RootNode (model correction matrix)"
    },
    {
      "children": [
        3
      ],
      "matrix": [
        1,
        0,
        0,
        0,
        0,
        0,
        1,
        0,
        0,
        -1,
        0,
        0,
        0,
        0,
        0,
        1
      ],
      "name": "ff37689d379a4d6aaf6bf1f9bc456832.fbx"
    },
    {
      "children": [
        4
      ],
      "name": "RootNode"
    },
    {
      "children": [
        5
      ],
      "matrix": [
        100,
        0,
        0,
        0,
        0,
        -1.6292067939183141e-05,
        -99.999999999998678,
        0,
        0,
        99.999984741209616,
        -1.6292065453210861e-05,
        0,
        0,
        0,
        0,
        1
      ],
      "name": "env_pyr_khafre"
    },
    {
      "mesh": 0,
      "name": "env_pyr_khafre_Material_0"
    }
  ],
  "scene": 0,
  "scenes": [
    {
      "name": "OSG_Scene",
      "nodes": [
        0
      ]
    }
  ]
}

